# xmcd
#
# Track frame offsets:
#	150
#	37841
#	50408
#	94226
#	144398
#	149176
#	201114
#
# Disc length: 2990 seconds
#
# Revision: 2
# Processed by: cddbd v1.5.2PL0 Copyright (c) Steve Scherf et al.
# Submitted via: EZCDAudioConverter 7.1.1.1
#
DISCID=650bac07
DTITLE=Grateful Dead - Dave's Picks Vol. 25 (Broome County, Binghampton '77)
DYEAR=2018
DGENRE=Psychedelic Rock
TTITLE0=St. Stephen >
TTITLE1=Drums >
TTITLE2=Not Fade Away >
TTITLE3=Wharf Rat >
TTITLE4=St. Stephen >
TTITLE5=Truckin'
TTITLE6=Johnny B. Goode
EXTD=
EXTT0=
EXTT1=
EXTT2=
EXTT3=
EXTT4=
EXTT5=
EXTT6=
PLAYORDER=
